<?xml version="1.0" encoding="UTF-8"?>
<svg version="1.1" xmlns="http://www.w3.org/2000/svg" width="270" height="148">
<path d="M0 0 C89.1 0 178.2 0 270 0 C270 48.84 270 97.68 270 148 C180.9 148 91.8 148 0 148 C0 99.16 0 50.32 0 0 Z " fill="#FCFCFD" transform="translate(0,0)"/>
<path d="M0 0 C25.41 0 50.82 0 77 0 C77 25.08 77 50.16 77 76 C51.59 76 26.18 76 0 76 C0 50.92 0 25.84 0 0 Z " fill="#AECF76" transform="translate(17,36)"/>
<path d="M0 0 C1.3319829 0.66936072 2.66481312 1.33705338 4 2 C3.34 2 2.68 2 2 2 C2 2.66 2 3.32 2 4 C1.01 4 0.02 4 -1 4 C-0.91269147 6.73064947 -0.80577876 9.4581619 -0.6875 12.1875 C-0.65366211 13.34088867 -0.65366211 13.34088867 -0.61914062 14.51757812 C-0.40134152 19.13095925 0.09278053 22.21918256 3 26 C6.81504907 29.35261888 10.17962895 29.25144728 15.01171875 29.0078125 C19.35374498 28.9964608 23.67950765 29.56795077 28 30 C27.505 12.675 27.505 12.675 27 -5 C27.66 -5 28.32 -5 29 -5 C29 6.88 29 18.76 29 31 C8.21 31 -12.58 31 -34 31 C-34 20.77 -34 10.54 -34 0 C-21.07577076 -6.46211462 -12.63796723 -6.75936659 0 0 Z " fill="#A0C75D" transform="translate(58,75)"/>
<path d="M0 0 C21.12 0 42.24 0 64 0 C64 7.26 64 14.52 64 22 C60.80107719 20.4005386 58.84646265 19.17187081 56.25 16.875 C55.63640625 16.33617188 55.0228125 15.79734375 54.390625 15.2421875 C53.70226562 14.62730469 53.70226562 14.62730469 53 14 C53.495 14.99 53.495 14.99 54 16 C53.30648437 15.84273437 52.61296875 15.68546875 51.8984375 15.5234375 C48.78842517 14.96179107 45.78034502 14.78239251 42.625 14.625 C38.72093662 14.36031774 35.4814454 14.06625377 31.9375 12.375 C29.17711056 10.77467444 29.17711056 10.77467444 26.625 11.25 C24.99691335 11.88785154 24.99691335 11.88785154 24 13 C22.61012793 13.21067535 21.21210438 13.36871383 19.8125 13.5 C17.12602858 13.76271487 14.58729161 14.0842262 11.9375 14.625 C8.03219497 15.12354958 4.87563066 14.72257521 1 14 C-1.09231398 9.81537205 0 4.67855628 0 0 Z " fill="#ABCD73" transform="translate(23,41)"/>
<path d="M0 0 C25.41 0 50.82 0 77 0 C77 25.08 77 50.16 77 76 C51.59 76 26.18 76 0 76 C0 50.92 0 25.84 0 0 Z M3 3 C3 26.1 3 49.2 3 73 C26.43 73 49.86 73 74 73 C74 49.9 74 26.8 74 3 C50.57 3 27.14 3 3 3 Z " fill="#4D5A9B" transform="translate(17,36)"/>
<path d="M0 0 C23.43 0 46.86 0 71 0 C71 23.1 71 46.2 71 70 C47.57 70 24.14 70 0 70 C0 46.9 0 23.8 0 0 Z M3 2 C2.97305149 3.95825873 2.95362782 5.91662226 2.9375 7.875 C2.92589844 8.96554688 2.91429687 10.05609375 2.90234375 11.1796875 C2.80255697 13.95177546 2.80255697 13.95177546 4 16 C6.34907875 16.68931344 6.34907875 16.68931344 9.0625 17.125 C10.44115234 17.37636719 10.44115234 17.37636719 11.84765625 17.6328125 C12.91306641 17.81457031 12.91306641 17.81457031 14 18 C13.67 18.66 13.34 19.32 13 20 C10.67328146 20.68939809 8.33932406 21.35466922 6 22 C5.01 22.66 4.02 23.32 3 24 C2.63637182 26.20725073 2.63637182 26.20725073 2.8125 28.625 C2.83957031 29.44226563 2.86664062 30.25953125 2.89453125 31.1015625 C2.92933594 31.72804688 2.96414062 32.35453125 3 33 C6.12804313 32.51124326 8.79865569 31.67976165 11.6875 30.4375 C17.73366672 28.18146764 23.05641952 27.78924425 29.10546875 30.27734375 C31.29710787 31.34828808 33.48201444 32.43311429 35.66015625 33.53125 C40.63101184 35.71726369 45.63062658 36.43887629 51 37 C43.61908094 37.47618833 38.67834473 36.02958023 32 33 C25.82366041 30.22894085 19.69469351 29.91962066 13.16796875 31.828125 C9.48580299 33.27295724 6.2977532 34.80149787 3 37 C3 47.23 3 57.46 3 68 C24.45 68 45.9 68 68 68 C68 61.8125 68 55.625 68 49.25 C68 25.78481013 68 25.78481013 68.03515625 20.61328125 C68.04444356 18.51302159 68.05355184 16.41276113 68.0625 14.3125 C68.07506836 12.70665039 68.07506836 12.70665039 68.08789062 11.06835938 C68.09272461 9.5437207 68.09272461 9.5437207 68.09765625 7.98828125 C68.10551147 6.58896362 68.10551147 6.58896362 68.11352539 5.16137695 C68.24270872 3.01969404 68.24270872 3.01969404 67 2 C65.0056827 1.90594858 63.00800457 1.88256751 61.01147461 1.88647461 C59.08959572 1.88658791 59.08959572 1.88658791 57.12889099 1.88670349 C55.72004152 1.89181091 54.31119244 1.89702691 52.90234375 1.90234375 C51.46887766 1.90420798 50.03541093 1.90563186 48.60194397 1.90663147 C44.82240043 1.91045628 41.0428951 1.92028623 37.2633667 1.93133545 C33.40930702 1.94155037 29.55524118 1.94612926 25.70117188 1.95117188 C18.13409713 1.96190854 10.56705391 1.97898451 3 2 Z " fill="#FAFBFC" transform="translate(20,39)"/>
<path d="M0 0 C0.33 0.66 0.66 1.32 1 2 C2.92280632 2.43214112 2.92280632 2.43214112 5.1875 2.5625 C8.83247893 2.89176117 12.39601389 3.3447298 16 4 C16.845625 4.061875 17.69125 4.12375 18.5625 4.1875 C22.28363216 5.42787739 23.68177485 7.88695479 26 11 C25.01526648 13.85572721 24.0416157 14.97012206 21.5625 16.75 C14.44139131 19.24863463 8.58249386 19.02954514 1.68652344 15.79321289 C-5.20874072 12.29818749 -12.49870723 8.50129277 -18 3 C-15.68848773 2.31510748 -13.86529862 2.0032854 -11.4375 2.0625 C-7.24175805 1.95491687 -4.64368936 -0.20638619 0 0 Z " fill="#A2C861" transform="translate(55,53)"/>
<path d="M0 0 C25.08 0 50.16 0 76 0 C76 25.08 76 50.16 76 76 C50.92 76 25.84 76 0 76 C0 75.67 0 75.34 0 75 C24.09 74.67 48.18 74.34 73 74 C73 50.24 73 26.48 73 2 C48.91 1.67 24.82 1.34 0 1 C0 0.67 0 0.34 0 0 Z " fill="#182283" transform="translate(18,36)"/>
<path d="M0 0 C1.25425781 0.02707031 2.50851563 0.05414063 3.80078125 0.08203125 C4.75339844 0.11683594 5.70601562 0.15164062 6.6875 0.1875 C6.3575 1.5075 6.0275 2.8275 5.6875 4.1875 C4.34945312 4.22617188 4.34945312 4.22617188 2.984375 4.265625 C1.81390625 4.32234375 0.6434375 4.3790625 -0.5625 4.4375 C-2.30273438 4.50710937 -2.30273438 4.50710937 -4.078125 4.578125 C-7.83951858 5.28679336 -9.07476975 6.12419937 -11.3125 9.1875 C-12.04241469 11.93541413 -11.85936219 14.40761721 -11.3125 17.1875 C-9.97916667 19.85416667 -9.97916667 19.85416667 -7.3125 21.1875 C-4.12970877 21.64218446 -2.32609974 21.89904438 0.6875 21.1875 C3.37855198 19.01175584 5.14282928 17.27684144 6.6875 14.1875 C3.3875 14.1875 0.0875 14.1875 -3.3125 14.1875 C-3.3125 13.1975 -3.3125 12.2075 -3.3125 11.1875 C0.9775 11.1875 5.2675 11.1875 9.6875 11.1875 C9.6875 17.39779673 9.43303082 18.63212468 5.6875 23.1875 C2.2253039 26.07266342 -0.80046884 26.72667865 -5.3203125 26.5390625 C-9.69704766 25.76669747 -12.4264496 23.25076048 -15.1875 19.9375 C-16.68001074 16.28914042 -16.99146674 13.03497819 -16.3125 9.1875 C-12.51473493 1.73262782 -8.17412092 -0.22918096 0 0 Z " fill="#F0F6E8" transform="translate(44.3125,78.8125)"/>
<path d="M0 0 C21.45 0 42.9 0 65 0 C65 1.32 65 2.64 65 4 C43.55 4 22.1 4 0 4 C0 2.68 0 1.36 0 0 Z " fill="#263689" transform="translate(101,81)"/>
<path d="M0 0 C4.50360104 0.4422698 7.00087363 2.49703049 10.57421875 5.1328125 C18.56087297 10.72239816 25.29031283 14.26997021 35.26171875 13.3203125 C39.77624184 12.12672456 43.08113741 10.81405877 46.26171875 7.3203125 C47.25171875 7.6503125 48.24171875 7.9803125 49.26171875 8.3203125 C42.0921453 14.43553692 36.55045674 15.96150718 27.21484375 15.82421875 C21.91828304 15.14906427 17.95410298 13.09667087 13.25390625 10.671875 C7.79696562 8.20699059 3.14549136 8.35630851 -2.47265625 10.234375 C-4.20240182 10.92927279 -5.91731693 11.66310909 -7.609375 12.4453125 C-9.73828125 13.3203125 -9.73828125 13.3203125 -12.73828125 13.3203125 C-13.35979519 5.08525274 -13.35979519 5.08525274 -11.11328125 2.3203125 C-7.44039318 0.77383331 -3.92479272 0.45910557 0 0 Z " fill="#A2C861" transform="translate(35.73828125,58.6796875)"/>
<path d="M0 0 C0.99 0 1.98 0 3 0 C3.01417969 1.09699219 3.02835938 2.19398437 3.04296875 3.32421875 C3.08988708 4.77868698 3.13813438 6.23311277 3.1875 7.6875 C3.19330078 8.40873047 3.19910156 9.12996094 3.20507812 9.87304688 C3.3730837 13.96118248 3.71732395 15.63271343 6.296875 18.984375 C10.35832232 22.01285306 12.04187961 21.70830291 17 21 C19.46329586 19.33300937 20.77902028 18.03964814 21.40844727 15.07836914 C21.61804438 12.79623095 21.7082028 10.54124665 21.75 8.25 C21.79447266 7.06083984 21.79447266 7.06083984 21.83984375 5.84765625 C21.91027787 3.89897906 21.95743482 1.94948505 22 0 C23.32 0 24.64 0 26 0 C26.10861833 2.70942393 26.18758577 5.414439 26.25 8.125 C26.30027344 9.26582031 26.30027344 9.26582031 26.3515625 10.4296875 C26.44387869 15.78402633 25.57203945 18.76264398 22 23 C17.63852341 25.90765106 14.19862383 26.72963142 9 26 C4.84476775 23.88032687 1.53849969 21.51887831 0 17 C-0.23306051 14.07798056 -0.18814165 11.17880122 -0.125 8.25 C-0.11597656 7.45722656 -0.10695312 6.66445312 -0.09765625 5.84765625 C-0.07417012 3.89830719 -0.03830137 1.94911425 0 0 Z " fill="#F6F9F1" transform="translate(57,79)"/>
<path d="M0 0 C1.588125 -0.061875 3.17625 -0.12375 4.8125 -0.1875 C6.15248047 -0.23970703 6.15248047 -0.23970703 7.51953125 -0.29296875 C10 0 10 0 11.84375 1.28125 C13 3 13 3 12.6875 6.6875 C12.460625 7.780625 12.23375 8.87375 12 10 C11.34 10 10.68 10 10 10 C10.7425 11.175625 10.7425 11.175625 11.5 12.375 C13 15 13 15 13 17 C11.125 16.75 11.125 16.75 9 16 C8.33333333 14.66666667 7.66666667 13.33333333 7 12 C4.94999129 11.19471111 4.94999129 11.19471111 3 11 C3 12.98 3 14.96 3 17 C2.01 17 1.02 17 0 17 C0 11.39 0 5.78 0 0 Z " fill="#31408E" transform="translate(181,57)"/>
<path d="M0 0 C3.96 0 7.92 0 12 0 C12 0.99 12 1.98 12 3 C9.36 3 6.72 3 4 3 C4 4.32 4 5.64 4 7 C6.31 7 8.62 7 11 7 C11 7.99 11 8.98 11 10 C8.69 10 6.38 10 4 10 C4 11.32 4 12.64 4 14 C6.64 14 9.28 14 12 14 C12 15.32 12 16.64 12 18 C8.04 18 4.08 18 0 18 C0 12.06 0 6.12 0 0 Z " fill="#4C599C" transform="translate(165,57)"/>
<path d="M0 0 C4.34489895 1.08622474 4.79124779 1.50393946 7.25 4.9375 C7.77078125 5.64777344 8.2915625 6.35804687 8.828125 7.08984375 C10 9 10 9 10 11 C10.66 11 11.32 11 12 11 C12 7.37 12 3.74 12 0 C12.99 0 13.98 0 15 0 C15 5.61 15 11.22 15 17 C10.87926399 15.969816 10.27622669 15.63097231 7.75 12.5625 C7.22921875 11.94503906 6.7084375 11.32757813 6.171875 10.69140625 C5 9 5 9 5 7 C4.34 7 3.68 7 3 7 C3 10.3 3 13.6 3 17 C2.01 17 1.02 17 0 17 C0 11.39 0 5.78 0 0 Z " fill="#233187" transform="translate(120,57)"/>
<path d="M0 0 C3.25 1 3.25 1 5.25 4 C3.02073598 4 0.79116143 3.98932934 -1.4375 3.9375 C-3.71298597 3.73373775 -3.71298597 3.73373775 -4.75 5 C-4.91666667 8.5 -4.91666667 8.5 -4.75 12 C-3.62465895 13.35618499 -3.62465895 13.35618499 -0.6875 13.0625 C0.281875 13.041875 1.25125 13.02125 2.25 13 C2.58 12.34 2.91 11.68 3.25 11 C2.26 11 1.27 11 0.25 11 C0.25 10.01 0.25 9.02 0.25 8 C2.23 8 4.21 8 6.25 8 C6.25 10.97 6.25 13.94 6.25 17 C-3.55570536 17.77277888 -3.55570536 17.77277888 -7.9375 14.9375 C-10.25001066 11.18963789 -10.59996238 9.32708119 -9.75 5 C-6.54401313 1.24664952 -4.98767473 0 0 0 Z " fill="#455298" transform="translate(109.75,36)"/>
<path d="M0 0 C2.61091752 0.22568289 4.12897213 -0.09592155 6.62109375 -0.7734375 C18.87757461 -1.75075166 18.87757461 -1.75075166 23.49609375 1.2265625 C27.20493282 3.60021951 29.32136213 3.31087096 33.62109375 3.2265625 C34.28109375 4.2165625 34.94109375 5.2065625 35.62109375 6.2265625 C34.92757812 6.06929687 34.2340625 5.91203125 33.51953125 5.75 C30.40951892 5.18835357 27.40143877 5.00895501 24.24609375 4.8515625 C20.34203037 4.58688024 17.10253915 4.29281627 13.55859375 2.6015625 C10.79820431 1.00123694 10.79820431 1.00123694 8.24609375 1.4765625 C6.6180071 2.11441404 6.6180071 2.11441404 5.62109375 3.2265625 C4.23122168 3.43723785 2.83319813 3.59527633 1.43359375 3.7265625 C-1.25287767 3.98927737 -3.79161464 4.3107887 -6.44140625 4.8515625 C-10.28555941 5.34230546 -13.55291667 4.82025054 -17.37890625 4.2265625 C-16.82203125 3.9584375 -16.26515625 3.6903125 -15.69140625 3.4140625 C-13.31913589 2.29803319 -13.31913589 2.29803319 -11.31640625 0.5390625 C-7.32455565 -1.24453032 -4.25958107 -0.6026037 0 0 Z " fill="#2B388B" transform="translate(41.37890625,50.7734375)"/>
<path d="M0 0 C1.32 0 2.64 0 4 0 C5.0063655 2.43504509 6.00526413 4.87270864 7 7.3125 C7.28617188 8.00279297 7.57234375 8.69308594 7.8671875 9.40429688 C9.08910744 12.41545674 10 14.71886984 10 18 C9.01 18 8.02 18 7 18 C6.67 16.35 6.34 14.7 6 13 C3.36 13 0.72 13 -2 13 C-2 14.32 -2 15.64 -2 17 C-2.99 17 -3.98 17 -5 17 C-1.92482916 5.47835991 -1.92482916 5.47835991 0 0 Z " fill="#354490" transform="translate(190,36)"/>
<path d="M0 0 C1.23556641 0.01740234 1.23556641 0.01740234 2.49609375 0.03515625 C3.32238281 0.04417969 4.14867187 0.05320313 5 0.0625 C5.63808594 0.07410156 6.27617187 0.08570313 6.93359375 0.09765625 C6.93359375 1.41765625 6.93359375 2.73765625 6.93359375 4.09765625 C4.62359375 3.76765625 2.31359375 3.43765625 -0.06640625 3.09765625 C0.26359375 4.08765625 0.59359375 5.07765625 0.93359375 6.09765625 C2.08859375 6.55140625 3.24359375 7.00515625 4.43359375 7.47265625 C7.93359375 9.09765625 7.93359375 9.09765625 8.99609375 11.59765625 C8.93359375 14.09765625 8.93359375 14.09765625 6.93359375 17.09765625 C4.55078125 17.390625 4.55078125 17.390625 1.80859375 17.28515625 C0.89851562 17.25808594 -0.0115625 17.23101562 -0.94921875 17.203125 C-1.64789063 17.16832031 -2.3465625 17.13351563 -3.06640625 17.09765625 C-3.39640625 15.77765625 -3.72640625 14.45765625 -4.06640625 13.09765625 C-1.09640625 13.42765625 1.87359375 13.75765625 4.93359375 14.09765625 C4.93359375 13.10765625 4.93359375 12.11765625 4.93359375 11.09765625 C3.81984375 10.80890625 2.70609375 10.52015625 1.55859375 10.22265625 C-2.06640625 9.09765625 -2.06640625 9.09765625 -4.06640625 7.09765625 C-3.35835074 0.15871223 -3.35835074 0.15871223 0 0 Z " fill="#364591" transform="translate(202.06640625,56.90234375)"/>
<path d="M0 0 C1.32 0 2.64 0 4 0 C5.00419637 2.4566947 6.00350501 4.91518353 7 7.375 C7.28617188 8.07367188 7.57234375 8.77234375 7.8671875 9.4921875 C10 14.7734375 10 14.7734375 10 17 C8.68 16.67 7.36 16.34 6 16 C6 15.01 6 14.02 6 13 C3.69 13 1.38 13 -1 13 C-1.33 14.32 -1.66 15.64 -2 17 C-2.99 17 -3.98 17 -5 17 C-4.80664062 16.35933594 -4.61328125 15.71867187 -4.4140625 15.05859375 C-2.9059252 10.04889015 -1.42282214 5.03460143 0 0 Z " fill="#213188" transform="translate(157,36)"/>
<path d="M0 0 C0.99 0 1.98 0 3 0 C4.00419637 2.4566947 5.00350501 4.91518353 6 7.375 C6.28617188 8.07367188 6.57234375 8.77234375 6.8671875 9.4921875 C9 14.7734375 9 14.7734375 9 17 C7.68 16.67 6.36 16.34 5 16 C5 15.01 5 14.02 5 13 C2.69 13 0.38 13 -2 13 C-2.33 14.32 -2.66 15.64 -3 17 C-3.99 17 -4.98 17 -6 17 C-4.33846988 11.14340094 -2.52958084 5.5409866 0 0 Z " fill="#233489" transform="translate(125,36)"/>
<path d="M0 0 C1.32 0 2.64 0 4 0 C4.33 4.29 4.66 8.58 5 13 C6.65 13.33 8.3 13.66 10 14 C11.87824891 12.12175109 11.39102397 8.96064724 11.5625 6.4375 C11.64628906 5.23996094 11.73007813 4.04242188 11.81640625 2.80859375 C11.87699219 1.88175781 11.93757813 0.95492187 12 0 C12.99 0 13.98 0 15 0 C15.08097324 2.27024968 15.13917704 4.54132075 15.1875 6.8125 C15.22230469 8.07707031 15.25710937 9.34164062 15.29296875 10.64453125 C15 14 15 14 13.734375 15.91796875 C10.6645344 17.83316209 7.42486204 17.68910705 4 17 C1.5 15.25 1.5 15.25 0 12 C-0.31393262 7.9764303 -0.23117557 4.02630793 0 0 Z " fill="#425298" transform="translate(100,57)"/>
<path d="M0 0 C5.65251148 2.39071352 11.37324625 2.93836652 17.47265625 3.46875 C15.14401291 5.79739334 14.63943554 5.78720037 11.47265625 5.84375 C5.91611362 5.73620401 1.46452808 3.73327464 -3.52734375 1.46875 C-12.24974046 -2.45839544 -20.81650951 -0.70569718 -29.52734375 2.46875 C-29.52734375 1.47875 -29.52734375 0.48875 -29.52734375 -0.53125 C-18.0131975 -6.01884311 -11.32866108 -5.72509213 0 0 Z " fill="#F5F9F0" transform="translate(55.52734375,71.53125)"/>
<path d="M0 0 C0.33 0 0.66 0 1 0 C1.02893932 3.62498334 1.04677792 7.24993713 1.0625 10.875 C1.07087891 11.90753906 1.07925781 12.94007812 1.08789062 14.00390625 C1.09111328 14.99003906 1.09433594 15.97617187 1.09765625 16.9921875 C1.10289307 17.90339355 1.10812988 18.81459961 1.11352539 19.75341797 C1 22 1 22 0 24 C-4.10839064 22.54997977 -7.50344613 20.6020866 -11 18 C-11 17.34 -11 16.68 -11 16 C-11.58007812 16.01160156 -12.16015625 16.02320312 -12.7578125 16.03515625 C-19.64786381 16.1147443 -25.46828644 15.33275484 -32 13 C-32 12.34 -32 11.68 -32 11 C-34.64 11.33 -37.28 11.66 -40 12 C-39.34 11.01 -38.68 10.02 -38 9 C-31.375 9.75 -31.375 9.75 -28 12 C-24.90384587 12.46150086 -24.90384587 12.46150086 -21.5 12.625 C-19.78296875 12.73714844 -19.78296875 12.73714844 -18.03125 12.8515625 C-16.02263141 12.94992269 -14.01102545 13 -12 13 C-9 13 -9 13 -7.24609375 14.49609375 C-6.64925781 15.13675781 -6.05242187 15.77742188 -5.4375 16.4375 C-2.99710571 19.0896163 -2.99710571 19.0896163 0 21 C0 14.07 0 7.14 0 0 Z " fill="#C0CAC5" transform="translate(87,42)"/>
<path d="M0 0 C1.32 0 2.64 0 4 0 C4.10861833 2.70942393 4.18758577 5.414439 4.25 8.125 C4.30027344 9.26582031 4.30027344 9.26582031 4.3515625 10.4296875 C4.44387262 15.78367446 3.57701832 18.76676609 0 23 C-3 25 -3 25 -6 25 C-5.59900399 22.19302794 -5.26666926 21.21250207 -3 19.40625 C-0.07835464 15.89114543 -0.33107526 12.69439825 -0.25 8.25 C-0.22035156 7.45722656 -0.19070312 6.66445312 -0.16015625 5.84765625 C-0.08972213 3.89897906 -0.04256518 1.94948505 0 0 Z " fill="#EBF3E0" transform="translate(79,79)"/>
<path d="M0 0 C1.32 0 2.64 0 4 0 C5.32 3.63 6.64 7.26 8 11 C10.60573797 6.65710338 11.44665863 4.75873581 12 0 C13.32 0 14.64 0 16 0 C14.13236819 5.72210596 12.14710968 11.37661751 10 17 C8.203125 16.93359375 8.203125 16.93359375 6 16 C4.71097601 13.66142667 3.7084493 11.52952895 2.75 9.0625 C2.481875 8.41603516 2.21375 7.76957031 1.9375 7.10351562 C0 2.34378986 0 2.34378986 0 0 Z " fill="#26378B" transform="translate(146,57)"/>
<path d="M0 0 C1.32 0 2.64 0 4 0 C4 14 4 28 4 42 C3.67 42 3.34 42 3 42 C3 29.79 3 17.58 3 5 C-0.96 6.98 -4.92 8.96 -9 11 C-10.32 11.33 -11.64 11.66 -13 12 C-13 11.67 -13 11.34 -13 11 C-15.64 10.67 -18.28 10.34 -21 10 C-21 9.67 -21 9.34 -21 9 C-20.27554688 8.96261719 -19.55109375 8.92523438 -18.8046875 8.88671875 C-11.36081047 8.38053511 -5.73348031 7.07192489 0 2 C0 1.34 0 0.68 0 0 Z " fill="#E0EBD0" transform="translate(84,65)"/>
<path d="M0 0 C0.99 0 1.98 0 3 0 C3 4.62 3 9.24 3 14 C5.97 14 8.94 14 12 14 C12 15.32 12 16.64 12 18 C8.04 18 4.08 18 0 18 C0 12.06 0 6.12 0 0 Z " fill="#47569B" transform="translate(171,36)"/>
<path d="M0 0 C1.875 0.125 1.875 0.125 4 1 C5.25 4.0625 5.25 4.0625 6 7 C6.66 7 7.32 7 8 7 C8.37125 5.5459375 8.37125 5.5459375 8.75 4.0625 C9.1625 3.051875 9.575 2.04125 10 1 C12.125 0.125 12.125 0.125 14 0 C12.94124926 3.40312738 11.99097846 6.01353231 10 9 C9.54860541 11.0492094 9.54860541 11.0492094 9.375 13.1875 C9.25125 14.445625 9.1275 15.70375 9 17 C8.01 17 7.02 17 6 17 C5.62875 15.2365625 5.62875 15.2365625 5.25 13.4375 C4.18417247 9.08923261 2.29359685 5.82266141 0 2 C0 1.34 0 0.68 0 0 Z " fill="#2F3F8E" transform="translate(238,57)"/>
<path d="M0 0 C4.95 0 9.9 0 15 0 C15 0.99 15 1.98 15 3 C13.02 3 11.04 3 9 3 C9 7.62 9 12.24 9 17 C8.01 17 7.02 17 6 17 C6 12.38 6 7.76 6 3 C4.02 3 2.04 3 0 3 C0 2.01 0 1.02 0 0 Z " fill="#394492" transform="translate(221,57)"/>
<path d="M0 0 C1.22589844 0.15275391 1.22589844 0.15275391 2.4765625 0.30859375 C3.41628906 0.43427734 3.41628906 0.43427734 4.375 0.5625 C4.045 1.2225 3.715 1.8825 3.375 2.5625 C4.035 2.8925 4.695 3.2225 5.375 3.5625 C5.045 4.5525 4.715 5.5425 4.375 6.5625 C2.725 6.5625 1.075 6.5625 -0.625 6.5625 C-0.625 4.9125 -0.625 3.2625 -0.625 1.5625 C-1.285 1.5625 -1.945 1.5625 -2.625 1.5625 C-2.625 3.2125 -2.625 4.8625 -2.625 6.5625 C-5.265 6.5625 -7.905 6.5625 -10.625 6.5625 C-10.955 4.9125 -11.285 3.2625 -11.625 1.5625 C-10.449375 1.3459375 -10.449375 1.3459375 -9.25 1.125 C-2.5 -0.32142857 -2.5 -0.32142857 0 0 Z " fill="#A1A2A4" transform="translate(219.625,103.4375)"/>
<path d="M0 0 C0.99 0 1.98 0 3 0 C3 0.66 3 1.32 3 2 C4.98 2 6.96 2 9 2 C8.34 3.65 7.68 5.3 7 7 C7.66 7 8.32 7 9 7 C9 7.66 9 8.32 9 9 C6.03 9 3.06 9 0 9 C0 7.35 0 5.7 0 4 C-2.51083114 5.25541557 -2.87125446 6.50063488 -4 9 C-4 6.69 -4 4.38 -4 2 C-2.68 2 -1.36 2 0 2 C0 1.34 0 0.68 0 0 Z " fill="#BCBCBE" transform="translate(114,101)"/>
<path d="M0 0 C0.70125 0.0721875 1.4025 0.144375 2.125 0.21875 C7.78307538 0.77225737 13.31588941 1.10724737 19 1 C19.33 2.65 19.66 4.3 20 6 C19.32453125 5.91621094 18.6490625 5.83242187 17.953125 5.74609375 C17.06109375 5.64425781 16.1690625 5.54242188 15.25 5.4375 C14.36828125 5.33308594 13.4865625 5.22867188 12.578125 5.12109375 C10.03511694 4.86952742 10.03511694 4.86952742 7.796875 5.59765625 C7.20390625 5.73042969 6.6109375 5.86320312 6 6 C5.34 5.34 4.68 4.68 4 4 C3.01 4 2.02 4 1 4 C0.67 4.66 0.34 5.32 0 6 C0 4.02 0 2.04 0 0 Z " fill="#B1B1B3" transform="translate(100,90)"/>
<path d="M0 0 C2.97 0.495 2.97 0.495 6 1 C6 1.66 6 2.32 6 3 C6.99 3 7.98 3 9 3 C9.33 3.66 9.66 4.32 10 5 C10.33 4.34 10.66 3.68 11 3 C11.66 3 12.32 3 13 3 C12.34 5.31 11.68 7.62 11 10 C10.01 10 9.02 10 8 10 C8 8.02 8 6.04 8 4 C7.34 4 6.68 4 6 4 C6 5.65 6 7.3 6 9 C4 9 2 9 0 9 C0 6.03 0 3.06 0 0 Z " fill="#87888B" transform="translate(226,101)"/>
<path d="M0 0 C0.99 0 1.98 0 3 0 C3 4.95 3 9.9 3 15 C5.97 15 8.94 15 12 15 C12 15.66 12 16.32 12 17 C8.04 17 4.08 17 0 17 C0 11.39 0 5.78 0 0 Z " fill="#253289" transform="translate(138,36)"/>
<path d="M0 0 C1.0326802 2.78823655 1.04509293 3.8677274 0.0625 6.75 C-0.288125 7.4925 -0.63875 8.235 -1 9 C1.97065509 8.65772428 1.97065509 8.65772428 5 8 C5.33 7.34 5.66 6.68 6 6 C8.52259061 7.97420135 8.9929808 8.96745642 9.6875 12.1875 C9.790625 13.115625 9.89375 14.04375 10 15 C9.01 15 8.02 15 7 15 C6.67 13.35 6.34 11.7 6 10 C3.36 10 0.72 10 -2 10 C-2 11.32 -2 12.64 -2 14 C-2.99 14 -3.98 14 -5 14 C-4.01 10.37 -3.02 6.74 -2 3 C-1.34 3 -0.68 3 0 3 C0 2.01 0 1.02 0 0 Z " fill="#25358A" transform="translate(190,39)"/>
<path d="M0 0 C0.79921875 0.01804688 1.5984375 0.03609375 2.421875 0.0546875 C3.02515625 0.07789063 3.6284375 0.10109375 4.25 0.125 C3.92 0.785 3.59 1.445 3.25 2.125 C0.94 2.125 -1.37 2.125 -3.75 2.125 C0.67442592 5.83580883 5.42403931 8.97077733 10.25 12.125 C9.59 12.785 8.93 13.445 8.25 14.125 C7.03763672 13.27615234 7.03763672 13.27615234 5.80078125 12.41015625 C4.73214844 11.67667969 3.66351563 10.94320312 2.5625 10.1875 C1.50675781 9.45660156 0.45101562 8.72570312 -0.63671875 7.97265625 C-3.50616298 6.26971131 -5.47538283 5.50774746 -8.75 5.125 C-8.75 4.135 -8.75 3.145 -8.75 2.125 C-5.68753253 0.34090198 -3.52920727 -0.10380021 0 0 Z " fill="#E3EBDB" transform="translate(42.75,53.875)"/>
<path d="M0 0 C0.99 0.33 1.98 0.66 3 1 C-4.24955607 7.18344488 -9.7774238 8.58643753 -19.20703125 8.4375 C-24.53791189 7.82260955 -28.55619484 5.9276834 -33 3 C-32.34 2.34 -31.68 1.68 -31 1 C-29.948125 1.639375 -28.89625 2.27875 -27.8125 2.9375 C-21.9319727 6.26587845 -15.41302704 7.14265879 -8.8125 5.43359375 C-5.11248975 4.13450927 -2.6723264 2.93544776 0 0 Z " fill="#BBD68F" transform="translate(82,66)"/>
<path d="M0 0 C2.1640625 -0.29296875 2.1640625 -0.29296875 4.625 -0.1875 C5.44226563 -0.16042969 6.25953125 -0.13335937 7.1015625 -0.10546875 C8.04128906 -0.05326172 8.04128906 -0.05326172 9 0 C9 1.32 9 2.64 9 4 C6.69 3.67 4.38 3.34 2 3 C2.33 4.32 2.66 5.64 3 7 C1.68 7.33 0.36 7.66 -1 8 C-1.625 5.6875 -1.625 5.6875 -2 3 C-1.34 2.01 -0.68 1.02 0 0 Z " fill="#3D4B95" transform="translate(200,57)"/>
<path d="M0 0 C0.99 0 1.98 0 3 0 C3 5.61 3 11.22 3 17 C2.01 17 1.02 17 0 17 C0 11.39 0 5.78 0 0 Z " fill="#303E8F" transform="translate(215,57)"/>
<path d="M0 0 C0.99 0 1.98 0 3 0 C3 5.61 3 11.22 3 17 C2.01 17 1.02 17 0 17 C0 11.39 0 5.78 0 0 Z " fill="#2D378C" transform="translate(140,57)"/>
<path d="M0 0 C0.66 0.99 1.32 1.98 2 3 C-1 3 -4 3 -7 3 C-7.99 4.98 -8.98 6.96 -10 9 C-10.66 9 -11.32 9 -12 9 C-12.3125 6.25 -12.3125 6.25 -12 3 C-8.27244001 -1.40529817 -5.41913162 -1.5337165 0 0 Z " fill="#2C3C8D" transform="translate(113,37)"/>
<path d="M0 0 C1.39394134 0.16292821 2.78996246 0.30902094 4.1875 0.4375 C5.445625 0.623125 6.70375 0.80875 8 1 C8.33 1.66 8.66 2.32 9 3 C8.17757812 2.96519531 7.35515625 2.93039063 6.5078125 2.89453125 C-0.91499135 2.71453254 -7.04736897 3.36333631 -14 6 C-14 5.01 -14 4.02 -14 3 C-12.42274653 2.29866401 -10.83788667 1.614417 -9.25 0.9375 C-7.92742188 0.36322266 -7.92742188 0.36322266 -6.578125 -0.22265625 C-3.75552372 -1.0737133 -2.72946554 -0.91533592 0 0 Z " fill="#EDF4E3" transform="translate(40,68)"/>
<path d="M0 0 C0.99 0 1.98 0 3 0 C3.08075665 2.29109597 3.13907731 4.58299267 3.1875 6.875 C3.22230469 8.15117188 3.25710937 9.42734375 3.29296875 10.7421875 C3.19628906 11.81726563 3.09960938 12.89234375 3 14 C2.01 14.66 1.02 15.32 0 16 C-1.18224668 12.45325997 -0.89329634 10.02477005 -0.5625 6.3125 C-0.46066406 5.13300781 -0.35882813 3.95351563 -0.25390625 2.73828125 C-0.17011719 1.83464844 -0.08632812 0.93101563 0 0 Z " fill="#313F8F" transform="translate(112,57)"/>
<path d="M0 0 C0 1.98 0 3.96 0 6 C-2.64 6 -5.28 6 -8 6 C-8 5.01 -8 4.02 -8 3 C-8.66 3 -9.32 3 -10 3 C-10.33 3.99 -10.66 4.98 -11 6 C-11 4.35 -11 2.7 -11 1 C-8.98177083 1.03255208 -6.96354167 1.06510417 -4.9453125 1.09765625 C-3.0426929 1.00214322 -1.80150594 0 0 0 Z " fill="#ACADAE" transform="translate(132,90)"/>
<path d="M0 0 C0.99 0.33 1.98 0.66 3 1 C3.33 3.31 3.66 5.62 4 8 C1.125 8.125 1.125 8.125 -2 8 C-2.66 7.34 -3.32 6.68 -4 6 C-2.25 1.125 -2.25 1.125 0 0 Z " fill="#858CB9" transform="translate(125,39)"/>
<path d="M0 0 C0.66 0 1.32 0 2 0 C2 2.31 2 4.62 2 7 C2.99 7 3.98 7 5 7 C5 4.69 5 2.38 5 0 C5.66 0 6.32 0 7 0 C7 2.64 7 5.28 7 8 C4.69 8.33 2.38 8.66 0 9 C0 6.03 0 3.06 0 0 Z " fill="#959699" transform="translate(182,101)"/>
<path d="M0 0 C1.98 0 3.96 0 6 0 C6 2.97 6 5.94 6 9 C4.35 8.67 2.7 8.34 1 8 C1.66 6.35 2.32 4.7 3 3 C2.01 3 1.02 3 0 3 C0 2.01 0 1.02 0 0 Z " fill="#223388" transform="translate(110,44)"/>
<path d="M0 0 C0.66 0 1.32 0 2 0 C2.99 2.97 3.98 5.94 5 9 C4.34 9 3.68 9 3 9 C3 8.34 3 7.68 3 7 C1.02 7.66 -0.96 8.32 -3 9 C-2.5020163 5.26512223 -2.12508244 3.18762365 0 0 Z " fill="#909194" transform="translate(104,101)"/>
<path d="M0 0 C1.4540625 0.0309375 1.4540625 0.0309375 2.9375 0.0625 C2.9375 2.0425 2.9375 4.0225 2.9375 6.0625 C0.9575 6.0625 -1.0225 6.0625 -3.0625 6.0625 C-3.44468767 4.40635343 -3.77645102 2.73792976 -4.0625 1.0625 C-3.0625 0.0625 -3.0625 0.0625 0 0 Z " fill="#AEAFB0" transform="translate(212.0625,103.9375)"/>
<path d="M0 0 C0.66 0 1.32 0 2 0 C2 1.98 2 3.96 2 6 C2.99 5.67 3.98 5.34 5 5 C5 5.66 5 6.32 5 7 C5.66 6.34 6.32 5.68 7 5 C7 4.34 7 3.68 7 3 C6.01 2.67 5.02 2.34 4 2 C5.65 2 7.3 2 9 2 C9 3.98 9 5.96 9 8 C6.03 8 3.06 8 0 8 C0 5.36 0 2.72 0 0 Z " fill="#909193" transform="translate(157,102)"/>
<path d="M0 0 C4.86245139 -0.16208171 7.68928073 -0.22488737 12 2 C13.19625 1.979375 14.3925 1.95875 15.625 1.9375 C16.73875 1.958125 17.8525 1.97875 19 2 C19.99 3.485 19.99 3.485 21 5 C20.31164062 4.84273437 19.62328125 4.68546875 18.9140625 4.5234375 C14.62095281 3.75228911 10.31353052 3.66580567 5.9609375 3.4765625 C2.82623917 2.97203322 1.87490613 2.48657763 0 0 Z " fill="#485599" transform="translate(56,52)"/>
<path d="M0 0 C1.65 0.33 3.3 0.66 5 1 C4.67 1.66 4.34 2.32 4 3 C3.34 3 2.68 3 2 3 C2.99 3.66 3.98 4.32 5 5 C4.67 6.32 4.34 7.64 4 9 C2.35 8.67 0.7 8.34 -1 8 C-0.67 7.34 -0.34 6.68 0 6 C0.66 6 1.32 6 2 6 C1.01 5.34 0.02 4.68 -1 4 C-0.67 2.68 -0.34 1.36 0 0 Z " fill="#898A8D" transform="translate(150,101)"/>
<path d="M0 0 C0.66 0 1.32 0 2 0 C2.33 0.66 2.66 1.32 3 2 C3.99 1.67 4.98 1.34 6 1 C6.99 1.33 7.98 1.66 9 2 C8.67 3.65 8.34 5.3 8 7 C7.34 7 6.68 7 6 7 C5.67 6.34 5.34 5.68 5 5 C3.35 5.33 1.7 5.66 0 6 C0 4.02 0 2.04 0 0 Z " fill="#AFB0B1" transform="translate(135,90)"/>
<path d="M0 0 C6.625 0.75 6.625 0.75 10 3 C12.27538323 3.66613335 12.27538323 3.66613335 14.6875 4.125 C15.49574219 4.29257812 16.30398437 4.46015625 17.13671875 4.6328125 C17.75160156 4.75398438 18.36648437 4.87515625 19 5 C15.90521121 6.03159626 14.47368607 5.97482862 11.3125 5.5625 C10.50425781 5.46066406 9.69601563 5.35882813 8.86328125 5.25390625 C8.24839844 5.17011719 7.63351563 5.08632813 7 5 C6.67 4.01 6.34 3.02 6 2 C3.36 2.33 0.72 2.66 -2 3 C-1.34 2.01 -0.68 1.02 0 0 Z " fill="#DBE4D0" transform="translate(49,51)"/>
<path d="M0 0 C1.65 0 3.3 0 5 0 C5.33 1.65 5.66 3.3 6 5 C4.02 5.33 2.04 5.66 0 6 C0 4.02 0 2.04 0 0 Z " fill="#E8E9F0" transform="translate(185,60)"/>
<path d="M0 0 C1.32 0 2.64 0 4 0 C4.99 3.3 5.98 6.6 7 10 C5.68 9.67 4.36 9.34 3 9 C1.953125 6.93359375 1.953125 6.93359375 1.25 4.4375 C1.00765625 3.61121094 0.7653125 2.78492188 0.515625 1.93359375 C0.34546875 1.29550781 0.1753125 0.65742187 0 0 Z " fill="#384691" transform="translate(146,57)"/>
<path d="M0 0 C0 0.33 0 0.66 0 1 C-0.969375 1.309375 -1.93875 1.61875 -2.9375 1.9375 C-5.84065792 2.69523342 -5.84065792 2.69523342 -7 4 C-7.23075082 5.34747084 -7.41153063 6.70377565 -7.5625 8.0625 C-7.7790625 10.0115625 -7.7790625 10.0115625 -8 12 C-8.66 12 -9.32 12 -10 12 C-10.61986755 3.78675497 -10.61986755 3.78675497 -8.375 0.9375 C-5.45304074 -0.21590497 -3.11398457 -0.21231713 0 0 Z " fill="#B2D17F" transform="translate(33,60)"/>
<path d="M0 0 C2.475 0.495 2.475 0.495 5 1 C5 2.65 5 4.3 5 6 C3.35 6 1.7 6 0 6 C0 4.02 0 2.04 0 0 Z " fill="#A3A4A5" transform="translate(172,104)"/>
<path d="M0 0 C1.32 0.33 2.64 0.66 4 1 C4 3.31 4 5.62 4 8 C2.68 8.33 1.36 8.66 0 9 C0 6.03 0 3.06 0 0 Z " fill="#BCBDBE" transform="translate(226,101)"/>
<path d="M0 0 C4.455 0.99 4.455 0.99 9 2 C9 2.33 9 2.66 9 3 C6.69 3 4.38 3 2 3 C1.67 4.32 1.34 5.64 1 7 C0.01 7 -0.98 7 -2 7 C-1.34 4.69 -0.68 2.38 0 0 Z " fill="#172382" transform="translate(121,46)"/>
<path d="M0 0 C-0.69941596 3.14737182 -1.76078698 6.02588876 -3 9 C-3.66 9 -4.32 9 -5 9 C-5.36666667 3.5 -5.36666667 3.5 -3.625 1.125 C-2 0 -2 0 0 0 Z " fill="#1F3087" transform="translate(106,37)"/>
<path d="M0 0 C1.65 0 3.3 0 5 0 C4.34 1.32 3.68 2.64 3 4 C3.66 4 4.32 4 5 4 C5 4.66 5 5.32 5 6 C3.02 6 1.04 6 -1 6 C-0.649375 5.38125 -0.29875 4.7625 0.0625 4.125 C0.371875 3.42375 0.68125 2.7225 1 2 C0.67 1.34 0.34 0.68 0 0 Z " fill="#909193" transform="translate(118,104)"/>
<path d="M0 0 C0.99 0 1.98 0 3 0 C2.25 2.9375 2.25 2.9375 1 6 C-1.125 6.875 -1.125 6.875 -3 7 C-1.125 1.125 -1.125 1.125 0 0 Z " fill="#394993" transform="translate(249,57)"/>
<path d="M0 0 C1.98 0 3.96 0 6 0 C5.34 1.98 4.68 3.96 4 6 C3.01 5.67 2.02 5.34 1 5 C0.67 3.35 0.34 1.7 0 0 Z " fill="#9B9B9D" transform="translate(201,104)"/>
<path d="M0 0 C2.31 0 4.62 0 7 0 C7 0.99 7 1.98 7 3 C4.69 3 2.38 3 0 3 C0 2.01 0 1.02 0 0 Z " fill="#2E3F8D" transform="translate(169,64)"/>
<path d="M0 0 C2 3 2 3 2 7 C0.68 7 -0.64 7 -2 7 C-1.125 1.125 -1.125 1.125 0 0 Z " fill="#D4D6E4" transform="translate(192,40)"/>
<path d="M0 0 C0.66 0 1.32 0 2 0 C2.66 1.98 3.32 3.96 4 6 C2.35 6 0.7 6 -1 6 C-0.67 4.02 -0.34 2.04 0 0 Z " fill="#CED0E0" transform="translate(158,41)"/>
<path d="M0 0 C0.66 0 1.32 0 2 0 C2.66 2.64 3.32 5.28 4 8 C3.01 8 2.02 8 1 8 C1 7.34 1 6.68 1 6 C0.34 5.67 -0.32 5.34 -1 5 C-0.67 3.35 -0.34 1.7 0 0 Z " fill="#EAEAEA" transform="translate(232,105)"/>
<path d="M0 0 C1.98 0 3.96 0 6 0 C6 0.99 6 1.98 6 3 C5.34 3 4.68 3 4 3 C3.67 3.66 3.34 4.32 3 5 C3 4.34 3 3.68 3 3 C2.01 3 1.02 3 0 3 C0 2.01 0 1.02 0 0 Z " fill="#4D5A9B" transform="translate(110,44)"/>
<path d="M0 0 C1.98 0 3.96 0 6 0 C6 1.98 6 3.96 6 6 C5.34 6 4.68 6 4 6 C3.67 5.01 3.34 4.02 3 3 C1.50014391 1.33289654 1.50014391 1.33289654 0 0 Z " fill="#E1E1E2" transform="translate(151,103)"/>
<path d="M0 0 C2.475 0.495 2.475 0.495 5 1 C5.33 1.99 5.66 2.98 6 4 C4 4 2 4 0 4 C0 2.68 0 1.36 0 0 Z " fill="#D5D5D6" transform="translate(159,104)"/>
<path d="M0 0 C2.475 0.495 2.475 0.495 5 1 C4.67 1.99 4.34 2.98 4 4 C3.01 4 2.02 4 1 4 C0.67 4.66 0.34 5.32 0 6 C0 4.02 0 2.04 0 0 Z " fill="#A7A8A9" transform="translate(100,90)"/>
<path d="M0 0 C0.66 0 1.32 0 2 0 C3.09658936 3.28976808 2.79953138 4.71303767 2 8 C1.34 8 0.68 8 0 8 C-1.125 2.25 -1.125 2.25 0 0 Z " fill="#8A8B8D" transform="translate(168,102)"/>
<path d="M0 0 C1.98 0 3.96 0 6 0 C6.33 0.99 6.66 1.98 7 3 C4.36 3 1.72 3 -1 3 C-0.67 2.01 -0.34 1.02 0 0 Z " fill="#273B8D" transform="translate(105,71)"/>
<path d="M0 0 C1.32 0.33 2.64 0.66 4 1 C4 2.98 4 4.96 4 7 C3.67 6.34 3.34 5.68 3 5 C2.34 5 1.68 5 1 5 C0.67 3.35 0.34 1.7 0 0 Z " fill="#455397" transform="translate(157,36)"/>
<path d="M0 0 C3.125 0.375 3.125 0.375 6 1 C5.67 1.66 5.34 2.32 5 3 C2.69 2.67 0.38 2.34 -2 2 C-1.34 1.34 -0.68 0.68 0 0 Z " fill="#1B2C86" transform="translate(202,64)"/>
<path d="M0 0 C0.66 0.33 1.32 0.66 2 1 C2 1.99 2 2.98 2 4 C-0.97 4 -3.94 4 -7 4 C-5.68 3.34 -4.36 2.68 -3 2 C-2.01 1.34 -1.02 0.68 0 0 Z " fill="#1C2C86" transform="translate(31,51)"/>
</svg>
